<svg width="318" height="122" viewBox="0 0 318 122" fill="none" xmlns="http://www.w3.org/2000/svg">
<g style="mix-blend-mode:multiply" opacity="0.7">
<path d="M8.28738 36.4375L15.0136 7.44516H21.0053L14.2791 36.4375H8.28738ZM5.00159 36.4375V36.1475H18.2414C20.2644 36.1475 21.9653 35.7868 23.3441 35.0652C24.7228 34.3436 25.8567 33.3514 26.7458 32.0886C27.6478 30.8258 28.3823 29.3762 28.9492 27.7398H29.2392L27.229 36.4375H5.00159ZM11.5345 7.73508V7.44516H24.4844V7.73508H11.5345ZM43.9914 37.0173C41.8911 37.0173 40.1 36.6694 38.6182 35.9736C37.1492 35.2778 36.1055 34.2276 35.487 32.8231C34.8685 31.4186 34.8041 29.6597 35.2937 27.5465L39.9325 7.44516H45.9242L41.2855 27.1599C41.002 28.3712 40.828 29.5309 40.7636 30.639C40.6992 31.7343 40.7958 32.72 41.0535 33.5962C41.3112 34.4595 41.7751 35.1425 42.4452 35.645C43.1281 36.1475 44.0687 36.3988 45.2671 36.3988C46.8649 36.3988 48.2758 36.0702 49.5 35.4131C50.7241 34.743 51.7549 33.7573 52.5925 32.4559C53.43 31.1415 54.0743 29.5051 54.5253 27.5465L59.1641 7.44516H59.454L54.8152 27.5465C54.3513 29.5695 53.662 31.2897 52.7471 32.7071C51.8322 34.1116 50.6532 35.1811 49.21 35.9156C47.7669 36.6501 46.0273 37.0173 43.9914 37.0173ZM36.2601 7.73508V7.44516H49.5966V7.73508H36.2601ZM55.2018 7.73508V7.44516H62.8364V7.73508H55.2018ZM78.7683 36.4375L68.9689 7.44516H75.5791L85.5332 36.4375H78.7683ZM58.3384 36.4375V36.1475H67.6159V36.4375H58.3384ZM62.32 36.4375L76.3329 20.3177H76.7195L62.7259 36.4375H62.32ZM75.0573 36.4375V36.1475H88.2005V36.4375H75.0573ZM66.2629 7.73508V7.44516H79.4061V7.73508H66.2629ZM76.4296 21.864L88.4904 7.52247H88.8769L76.8355 21.864H76.4296ZM84.2382 7.73508V7.44516H92.7426V7.73508H84.2382ZM104.052 37.0173C101.952 37.0173 100.161 36.6694 98.6791 35.9736C97.2101 35.2778 96.1664 34.2276 95.5479 32.8231C94.9294 31.4186 94.865 29.6597 95.3546 27.5465L99.9934 7.44516H105.985L101.346 27.1599C101.063 28.3712 100.889 29.5309 100.824 30.639C100.76 31.7343 100.857 32.72 101.114 33.5962C101.372 34.4595 101.836 35.1425 102.506 35.645C103.189 36.1475 104.13 36.3988 105.328 36.3988C106.926 36.3988 108.337 36.0702 109.561 35.4131C110.785 34.743 111.816 33.7573 112.653 32.4559C113.491 31.1415 114.135 29.5051 114.586 27.5465L119.225 7.44516H119.515L114.876 27.5465C114.412 29.5695 113.723 31.2897 112.808 32.7071C111.893 34.1116 110.714 35.1811 109.271 35.9156C107.828 36.6501 106.088 37.0173 104.052 37.0173ZM96.321 7.73508V7.44516H109.657V7.73508H96.321ZM115.263 7.73508V7.44516H122.897V7.73508H115.263ZM122.651 36.4375L129.416 7.44516H135.408L128.643 36.4375H122.651ZM118.979 36.4375V36.1475H132.895V36.4375H118.979ZM142.753 36.7274C141.413 36.7274 140.382 36.5148 139.66 36.0896C138.952 35.6643 138.456 35.0974 138.172 34.3887C137.901 33.6671 137.766 32.8618 137.766 31.9727C137.779 31.0836 137.837 30.1622 137.94 29.2087C138.056 28.2552 138.133 27.3339 138.172 26.4448C138.211 25.5557 138.127 24.7568 137.921 24.0481C137.727 23.3265 137.328 22.7595 136.722 22.3472C136.13 21.922 135.241 21.7094 134.055 21.7094H130.963V21.5161H135.795C137.831 21.5161 139.428 21.7802 140.588 22.3086C141.748 22.8369 142.592 23.5391 143.12 24.4153C143.648 25.2915 143.97 26.2515 144.086 27.2952C144.202 28.3261 144.215 29.3633 144.125 30.4071C144.035 31.4379 143.951 32.3914 143.874 33.2676C143.797 34.131 143.835 34.8268 143.99 35.3551C144.157 35.8834 144.55 36.1475 145.169 36.1475C145.504 36.1475 145.826 36.1024 146.135 36.0122C146.457 35.9221 146.78 35.819 147.102 35.703L147.198 35.9736C146.502 36.2442 145.807 36.4375 145.111 36.5534C144.428 36.6694 143.642 36.7274 142.753 36.7274ZM130.963 21.6127V21.4001H134.828C135.924 21.4001 136.883 21.2004 137.708 20.8009C138.533 20.3886 139.235 19.8539 139.815 19.1967C140.395 18.5267 140.865 17.7857 141.226 16.974C141.587 16.1622 141.851 15.3504 142.018 14.5386C142.186 13.7139 142.27 12.9601 142.27 12.2772C142.27 11.8004 142.218 11.2979 142.115 10.7696C142.025 10.2413 141.838 9.75166 141.554 9.30067C141.284 8.83679 140.884 8.46311 140.356 8.17963C139.841 7.88326 139.158 7.73508 138.307 7.73508H125.357V7.44516H139.66C141.348 7.44516 142.862 7.632 144.202 8.00568C145.543 8.37935 146.599 8.99141 147.372 9.84186C148.158 10.6923 148.551 11.8262 148.551 13.2436C148.551 15.0476 148.029 16.5745 146.986 17.8244C145.942 19.0614 144.46 20.0021 142.54 20.6463C140.633 21.2906 138.385 21.6127 135.795 21.6127H130.963ZM160.645 36.4375L163.931 21.864L158.519 7.44516H165.148L169.865 21.2842L180.766 7.52247H181.133L169.845 21.7867L166.637 36.4375H160.645ZM157.166 36.4375V36.1475H170.502V36.4375H157.166ZM155.813 7.73508V7.44516H169.207V7.73508H155.813ZM176.108 7.73508V7.44516H184.225V7.73508H176.108Z" fill="#333333"/>
</g>
<g style="mix-blend-mode:multiply" opacity="0.7">
<path d="M19.9817 114.544C18.6764 114.544 17.5597 114.274 16.6317 113.733C15.7139 113.193 15.0052 112.433 14.5055 111.454L8.46324 99.8742C8.15731 99.2623 7.92785 98.6658 7.77489 98.0845C7.62192 97.493 7.54543 96.9321 7.54543 96.4018C7.54543 95.3821 7.88196 94.4642 8.55502 93.6484C9.23828 92.8326 10.1459 92.185 11.2779 91.7057C12.42 91.2264 13.6795 90.9868 15.0562 90.9868C15.8006 90.9868 16.5247 91.0786 17.2283 91.2621C17.9422 91.4355 18.5897 91.6955 19.171 92.0423C19.7523 92.3788 20.2112 92.7918 20.5477 93.2813C20.8944 93.7708 21.0678 94.3215 21.0678 94.9333C21.0678 95.7084 20.8588 96.3712 20.4406 96.9219C20.0225 97.4726 19.4616 97.9519 18.758 98.3598C18.0543 98.7677 17.2589 99.1502 16.3717 99.5071C15.4845 99.8538 14.5718 100.216 13.6336 100.593L13.5571 100.379C14.1995 100.083 14.74 99.6652 15.1785 99.1247C15.617 98.574 15.9485 97.9468 16.1728 97.2432C16.3972 96.5395 16.5094 95.8002 16.5094 95.0251C16.5094 94.3929 16.4584 93.7861 16.3564 93.2048C16.2646 92.6235 16.1014 92.1442 15.8669 91.7669C15.6323 91.3896 15.2958 91.2009 14.8573 91.2009C14.2658 91.2009 13.7763 91.41 13.3888 91.8281C13.0115 92.236 12.7311 92.7459 12.5475 93.3578C12.3639 93.9595 12.2721 94.556 12.2721 95.1475C12.2721 95.6778 12.369 96.3407 12.5628 97.1361C12.7565 97.9315 13.1084 98.8442 13.6183 99.8742L19.5381 111.714C19.7115 112.061 19.9053 112.402 20.1194 112.739C20.3438 113.075 20.5987 113.356 20.8842 113.58C21.1698 113.805 21.5063 113.917 21.8938 113.917C22.3527 113.917 22.8371 113.743 23.347 113.397C23.8569 113.04 24.2393 112.581 24.4943 112.02L24.6932 112.081C24.4076 112.754 23.8824 113.335 23.1176 113.825C22.3527 114.304 21.3075 114.544 19.9817 114.544ZM8.79977 114.544C7.34148 114.544 6.04635 114.35 4.91438 113.963C3.79262 113.575 2.9105 112.999 2.26804 112.234C1.63577 111.459 1.31964 110.495 1.31964 109.343C1.31964 108.211 1.54909 107.257 2.00799 106.482C2.4669 105.707 3.08897 105.05 3.8742 104.509C4.65944 103.969 5.55175 103.484 6.55114 103.056C7.56073 102.628 8.61621 102.194 9.71758 101.756L9.79407 101.955C9.04962 102.342 8.40206 102.862 7.85137 103.515C7.31088 104.157 6.88767 104.892 6.58174 105.718C6.286 106.533 6.13813 107.416 6.13813 108.364C6.13813 108.925 6.22991 109.526 6.41347 110.169C6.59703 110.811 6.88257 111.418 7.27009 111.989C7.66781 112.55 8.1777 113.009 8.79977 113.366C9.43204 113.723 10.1918 113.901 11.079 113.901C12.4251 113.901 13.7865 113.687 15.1632 113.259C16.54 112.831 17.8504 112.254 19.0945 111.53C20.3387 110.806 21.4451 110.001 22.4139 109.113C23.3929 108.216 24.168 107.293 24.739 106.345C25.3101 105.386 25.5957 104.473 25.5957 103.607H25.7945C25.7945 103.964 25.6568 104.295 25.3815 104.601C25.1062 104.897 24.7492 105.136 24.3107 105.32C23.8722 105.503 23.4082 105.595 22.9187 105.595C22.3374 105.595 21.8326 105.473 21.4043 105.228C20.976 104.973 20.6446 104.647 20.41 104.249C20.1857 103.851 20.0735 103.423 20.0735 102.964C20.0735 102.546 20.1959 102.153 20.4406 101.786C20.6854 101.409 21.0066 101.103 21.4043 100.869C21.8123 100.624 22.2559 100.501 22.7352 100.501C23.3572 100.501 23.8977 100.644 24.3566 100.93C24.8257 101.205 25.1877 101.577 25.4427 102.046C25.6976 102.515 25.8251 103.036 25.8251 103.607C25.8251 104.545 25.5243 105.519 24.9226 106.528C24.3311 107.538 23.4949 108.517 22.4139 109.465C21.3432 110.414 20.0888 111.27 18.6509 112.035C17.2232 112.8 15.6731 113.412 14.0007 113.871C12.3282 114.319 10.5946 114.544 8.79977 114.544Z" fill="#333333"/>
</g>
<g style="mix-blend-mode:multiply" opacity="0.7">
<path d="M25.8194 74.6423L32.5456 45.65H38.5373L31.8111 74.6423H25.8194ZM22.5336 74.6423V74.3524H35.6768V74.6423H22.5336ZM40.4122 65.0555C40.4122 64.1922 40.2511 63.4062 39.929 62.6975C39.6197 61.9888 39.1365 61.4283 38.4793 61.0159C37.8351 60.5907 37.0168 60.3781 36.0247 60.3781H34.2851V60.0688H36.0247C37.004 60.0688 37.9253 59.8756 38.7886 59.489C39.6519 59.1024 40.4122 58.5741 41.0693 57.9041C41.7265 57.2211 42.2355 56.448 42.5963 55.5847H42.8862L40.7021 65.0555H40.4122ZM48.472 53.5746C48.6009 52.1958 48.4849 50.9266 48.1241 49.7669C47.7633 48.6072 47.1255 47.6795 46.2106 46.9836C45.3086 46.2878 44.1039 45.9399 42.5963 45.9399H29.0665V45.65H50.6175L48.7619 53.5746H48.472ZM50.0569 74.6423L67.1044 45.0701H69.3078L72.9802 74.6423H66.6019L64.1472 50.7913L50.3855 74.6423H50.0569ZM46.6938 74.6423V74.3524H55.1982V74.6423H46.6938ZM62.1564 74.6423V74.3524H75.6861V74.6423H62.1564ZM55.7394 65.3261V65.0362H68.3414V65.3261H55.7394ZM89.4753 75.2221C87.9677 75.2221 86.6856 74.9644 85.629 74.449C84.5853 73.9207 83.7284 73.212 83.0583 72.3229C82.3883 71.4338 81.8664 70.4416 81.4928 69.3464C81.1191 68.2382 80.8485 67.1043 80.681 65.9446H80.9709C81.1126 67.0012 81.3575 68.0578 81.7054 69.1144C82.0533 70.171 82.5429 71.131 83.1743 71.9943C83.8186 72.8577 84.6304 73.5535 85.6097 74.0818C86.6018 74.6101 87.8131 74.8742 89.2434 74.8742C90.5448 74.8742 91.6916 74.6294 92.6838 74.1398C93.676 73.6501 94.4491 72.9736 95.0032 72.1103C95.5701 71.2341 95.8536 70.229 95.8536 69.0951C95.8536 67.9998 95.6346 67.085 95.1965 66.3505C94.7712 65.6031 94.1978 64.9782 93.4762 64.4757C92.7675 63.9602 91.988 63.4964 91.1375 63.084C90.2871 62.6717 89.4366 62.24 88.5862 61.789C87.7358 61.3381 86.9498 60.8162 86.2282 60.2235C85.5195 59.6178 84.9461 58.8769 84.508 58.0007C84.0827 57.1116 83.8701 56.0228 83.8701 54.7342C83.8701 53.1751 84.1858 51.8092 84.8172 50.6367C85.4615 49.4641 86.2926 48.4784 87.3105 47.6795C88.3414 46.8806 89.4431 46.2814 90.6157 45.8819C91.7882 45.4696 92.9157 45.2634 93.9981 45.2634C95.6474 45.2634 97.0326 45.6371 98.1537 46.3845C99.2747 47.1318 100.151 48.1627 100.782 49.477C101.414 50.7784 101.826 52.2731 102.019 53.9611H101.729C101.536 52.3376 101.137 50.9008 100.531 49.6509C99.9383 48.3882 99.1201 47.4024 98.0764 46.6937C97.0326 45.9721 95.7505 45.6113 94.23 45.6113C93.3023 45.6113 92.4132 45.8111 91.5628 46.2105C90.7252 46.61 90.0358 47.1705 89.4946 47.8921C88.9534 48.6008 88.6828 49.4512 88.6828 50.4434C88.6828 51.3711 88.9019 52.1572 89.34 52.8014C89.7781 53.4328 90.3515 53.9869 91.0602 54.4637C91.7818 54.9275 92.5743 55.3721 93.4376 55.7973C94.3009 56.2225 95.1642 56.68 96.0276 57.1696C96.8909 57.6593 97.6769 58.2455 98.3856 58.9285C99.1072 59.5985 99.687 60.4232 100.125 61.4025C100.563 62.3818 100.782 63.5737 100.782 64.9782C100.782 66.3312 100.486 67.6262 99.8932 68.8632C99.3134 70.0873 98.5016 71.1761 97.4579 72.1296C96.427 73.0832 95.2287 73.837 93.8628 74.391C92.4969 74.9451 91.0344 75.2221 89.4753 75.2221ZM78.6322 75.0289L80.681 65.9446H80.9709L81.1835 67.7228C81.4412 68.6506 81.7376 69.501 82.0726 70.2741C82.4076 71.0473 82.8071 71.7431 83.271 72.3616L78.8834 75.0289H78.6322ZM101.729 53.9611L101.652 52.6661C101.42 51.8028 101.162 50.9781 100.879 50.1921C100.608 49.4061 100.157 48.5814 99.526 47.7181L103.74 45.2634H103.991L102.019 53.9611H101.729ZM112.11 60.4941V60.2041H126.026V60.4941H112.11ZM121.02 45.9399H117.85L111.433 74.3524H114.642V74.6423H102.078V74.3524H105.441L111.858 45.9399H108.457V45.65H121.02V45.9399ZM137.449 45.65V45.9399H134.086L127.669 74.3524H131.071V74.6423H118.507V74.3524H121.677L128.094 45.9399H124.885V45.65H137.449ZM137.588 74.6423L144.159 45.65H150.151L143.579 74.6423H137.588ZM133.336 74.6423V74.3524H148.025V74.6423H133.336ZM139.714 45.9399V45.65H154.403V45.9399H139.714ZM164.202 75.0289C160.955 75.0289 158.436 74.1076 156.644 72.2649C154.853 70.4223 153.958 67.929 153.958 64.7849C153.958 62.5171 154.274 60.391 154.905 58.4066C155.536 56.4222 156.4 54.6247 157.495 53.014C158.603 51.4034 159.872 50.0182 161.303 48.8585C162.733 47.6988 164.253 46.8097 165.864 46.1912C167.488 45.5727 169.124 45.2634 170.773 45.2634C172.809 45.2634 174.594 45.6822 176.127 46.5198C177.674 47.3444 178.872 48.5235 179.722 50.0568C180.586 51.5902 181.017 53.407 181.017 55.5074C181.017 58.3422 180.553 60.9515 179.626 63.3353C178.698 65.7062 177.435 67.7679 175.837 69.5203C174.252 71.2599 172.455 72.6128 170.445 73.5793C168.435 74.5457 166.354 75.0289 164.202 75.0289ZM164.202 74.7583C165.258 74.7583 166.251 74.4104 167.178 73.7145C168.119 73.0187 168.982 72.0717 169.768 70.8733C170.567 69.6621 171.276 68.2898 171.894 66.7564C172.526 65.223 173.061 63.6059 173.499 61.905C173.937 60.2041 174.265 58.5097 174.484 56.8217C174.716 55.1208 174.832 53.523 174.832 52.0283C174.832 51.1907 174.761 50.3854 174.62 49.6123C174.491 48.8391 174.265 48.1498 173.943 47.5442C173.634 46.9257 173.215 46.436 172.687 46.0752C172.171 45.7144 171.534 45.534 170.773 45.534C169.781 45.534 168.828 45.8819 167.913 46.5777C167.011 47.2736 166.16 48.2271 165.361 49.4383C164.575 50.6367 163.86 52.0025 163.216 53.5359C162.585 55.0693 162.037 56.6864 161.573 58.3873C161.122 60.0882 160.768 61.789 160.51 63.4899C160.265 65.1779 160.143 66.7693 160.143 68.264C160.143 69.6299 160.265 70.796 160.51 71.7624C160.768 72.7288 161.193 73.4697 161.786 73.9851C162.378 74.5006 163.184 74.7583 164.202 74.7583ZM203.504 75.0289L190.902 45.65H198.053L206.152 64.6689L210.481 45.65H210.791L204.103 75.0289H203.504ZM180.755 74.6423V74.3524H189.298V74.6423H180.755ZM184.388 74.6423L190.805 45.9399H186.94V45.65H191.153L184.698 74.6423H184.388ZM205.843 45.9399V45.65H214.792V45.9399H205.843Z" fill="#333333"/>
</g>
<g style="mix-blend-mode:multiply" opacity="0.7">
<path d="M30.7706 114.016L47.8181 84.444H50.0215L53.6939 114.016H47.3156L44.8609 90.1651L31.0992 114.016H30.7706ZM27.4075 114.016V113.726H35.9119V114.016H27.4075ZM42.8701 114.016V113.726H56.3998V114.016H42.8701ZM36.4531 104.7V104.41H49.0551V104.7H36.4531ZM73.1656 114.403C71.0008 114.403 69.1066 113.99 67.4831 113.166C65.8595 112.328 64.5967 111.143 63.6947 109.609C62.7927 108.076 62.3418 106.259 62.3418 104.159C62.3418 101.517 62.7927 99.0239 63.6947 96.6787C64.5967 94.3207 65.8402 92.2397 67.4251 90.4357C69.01 88.6317 70.8397 87.2143 72.9143 86.1835C74.9888 85.1527 77.1987 84.6372 79.5439 84.6372C81.1932 84.6372 82.6235 84.998 83.8347 85.7196C85.046 86.4283 85.9866 87.4463 86.6566 88.7735C87.3396 90.1007 87.7068 91.6856 87.7584 93.5282H87.5651C87.4878 92.0335 87.23 90.7578 86.7919 89.7012C86.3667 88.6446 85.8191 87.7813 85.149 87.1112C84.4919 86.4283 83.7574 85.9322 82.9456 85.623C82.1467 85.3008 81.3349 85.1398 80.5103 85.1398C79.2346 85.1398 78.0556 85.4877 76.9732 86.1835C75.8908 86.8664 74.9115 87.8006 74.0353 88.9861C73.172 90.1715 72.4053 91.5116 71.7353 93.0064C71.0652 94.4882 70.5047 96.0473 70.0537 97.6838C69.6156 99.3073 69.2806 100.912 69.0486 102.497C68.8296 104.069 68.7201 105.525 68.7201 106.865C68.7201 108.115 68.8682 109.281 69.1646 110.363C69.4739 111.433 70.0022 112.296 70.7495 112.953C71.5098 113.61 72.5599 113.939 73.9 113.939C75.4334 113.939 76.8959 113.572 78.2875 112.837C79.6792 112.09 80.9548 111.085 82.1145 109.822C83.2871 108.546 84.2986 107.11 85.149 105.512H85.3423C84.5692 107.097 83.5835 108.566 82.3851 109.919C81.1996 111.272 79.8273 112.36 78.2682 113.185C76.7091 113.997 75.0082 114.403 73.1656 114.403ZM83.0616 114.016L80.7036 111.426C81.3092 110.872 81.9148 110.26 82.5204 109.59C83.1389 108.92 83.7574 108.089 84.3759 107.097L85.149 105.512H85.439L83.3129 114.016H83.0616ZM87.5651 93.5282L87.5071 92.1173C87.3396 91.1895 87.1334 90.3777 86.8886 89.6819C86.6566 88.9861 86.3087 88.3354 85.8449 87.7298L89.5559 85.0238H89.8071L87.855 93.5282H87.5651ZM101.29 114.403C99.1248 114.403 97.2307 113.99 95.6071 113.166C93.9835 112.328 92.7208 111.143 91.8188 109.609C90.9168 108.076 90.4658 106.259 90.4658 104.159C90.4658 101.517 90.9168 99.0239 91.8188 96.6787C92.7208 94.3207 93.9642 92.2397 95.5491 90.4357C97.134 88.6317 98.9638 87.2143 101.038 86.1835C103.113 85.1527 105.323 84.6372 107.668 84.6372C109.317 84.6372 110.748 84.998 111.959 85.7196C113.17 86.4283 114.111 87.4463 114.781 88.7735C115.464 90.1007 115.831 91.6856 115.882 93.5282H115.689C115.612 92.0335 115.354 90.7578 114.916 89.7012C114.491 88.6446 113.943 87.7813 113.273 87.1112C112.616 86.4283 111.881 85.9322 111.07 85.623C110.271 85.3008 109.459 85.1398 108.634 85.1398C107.359 85.1398 106.18 85.4877 105.097 86.1835C104.015 86.8664 103.036 87.8006 102.159 88.9861C101.296 90.1715 100.529 91.5116 99.8593 93.0064C99.1893 94.4882 98.6288 96.0473 98.1778 97.6838C97.7397 99.3073 97.4046 100.912 97.1727 102.497C96.9536 104.069 96.8441 105.525 96.8441 106.865C96.8441 108.115 96.9923 109.281 97.2887 110.363C97.5979 111.433 98.1262 112.296 98.8736 112.953C99.6338 113.61 100.684 113.939 102.024 113.939C103.557 113.939 105.02 113.572 106.412 112.837C107.803 112.09 109.079 111.085 110.239 109.822C111.411 108.546 112.423 107.11 113.273 105.512H113.466C112.693 107.097 111.708 108.566 110.509 109.919C109.324 111.272 107.951 112.36 106.392 113.185C104.833 113.997 103.132 114.403 101.29 114.403ZM111.186 114.016L108.828 111.426C109.433 110.872 110.039 110.26 110.644 109.59C111.263 108.92 111.881 108.089 112.5 107.097L113.273 105.512H113.563L111.437 114.016H111.186ZM115.689 93.5282L115.631 92.1173C115.464 91.1895 115.257 90.3777 115.013 89.6819C114.781 88.9861 114.433 88.3354 113.969 87.7298L117.68 85.0238H117.931L115.979 93.5282H115.689ZM118.01 114.016L124.736 85.0238H130.728L124.002 114.016H118.01ZM114.724 114.016V113.726H128.447C130.213 113.726 131.765 113.365 133.105 112.644C134.445 111.922 135.579 110.93 136.507 109.667C137.448 108.404 138.202 106.955 138.769 105.318H139.058L137.048 114.016H114.724ZM132.738 103.849C132.738 102.986 132.577 102.2 132.255 101.491C131.933 100.783 131.482 100.222 130.902 99.8099C130.335 99.3847 129.684 99.1721 128.95 99.1721H126.398V98.8821H128.95C129.684 98.8821 130.438 98.6888 131.211 98.3023C131.984 97.9028 132.699 97.3681 133.357 96.698C134.014 96.0151 134.536 95.242 134.922 94.3787H135.212L133.028 103.849H132.738ZM141.243 92.9484C141.371 91.5696 141.236 90.3004 140.837 89.1407C140.45 87.981 139.786 87.0533 138.846 86.3574C137.905 85.6616 136.681 85.3137 135.173 85.3137H121.257V85.0238H143.388L141.532 92.9484H141.243ZM151.541 114.596C150.034 114.596 148.751 114.338 147.695 113.823C146.651 113.295 145.794 112.586 145.124 111.697C144.454 110.808 143.932 109.815 143.559 108.72C143.185 107.612 142.914 106.478 142.747 105.318H143.037C143.178 106.375 143.423 107.432 143.771 108.488C144.119 109.545 144.609 110.505 145.24 111.368C145.884 112.231 146.696 112.927 147.675 113.456C148.668 113.984 149.879 114.248 151.309 114.248C152.611 114.248 153.757 114.003 154.75 113.514C155.742 113.024 156.515 112.347 157.069 111.484C157.636 110.608 157.919 109.603 157.919 108.469C157.919 107.374 157.7 106.459 157.262 105.724C156.837 104.977 156.264 104.352 155.542 103.849C154.833 103.334 154.054 102.87 153.203 102.458C152.353 102.046 151.502 101.614 150.652 101.163C149.802 100.712 149.016 100.19 148.294 99.5973C147.585 98.9917 147.012 98.2507 146.574 97.3745C146.149 96.4854 145.936 95.3966 145.936 94.1081C145.936 92.5489 146.252 91.1831 146.883 90.0105C147.527 88.8379 148.358 87.8522 149.376 87.0533C150.407 86.2544 151.509 85.6552 152.681 85.2557C153.854 84.8434 154.982 84.6372 156.064 84.6372C157.713 84.6372 159.098 85.0109 160.219 85.7583C161.341 86.5056 162.217 87.5365 162.848 88.8508C163.48 90.1522 163.892 91.6469 164.085 93.3349H163.795C163.602 91.7114 163.202 90.2746 162.597 89.0247C162.004 87.762 161.186 86.7762 160.142 86.0675C159.098 85.3459 157.816 84.9851 156.296 84.9851C155.368 84.9851 154.479 85.1849 153.629 85.5843C152.791 85.9838 152.102 86.5443 151.56 87.2659C151.019 87.9746 150.749 88.825 150.749 89.8172C150.749 90.745 150.968 91.531 151.406 92.1752C151.844 92.8066 152.417 93.3607 153.126 93.8375C153.848 94.3013 154.64 94.7459 155.503 95.1711C156.367 95.5963 157.23 96.0538 158.093 96.5434C158.957 97.0331 159.743 97.6194 160.451 98.3023C161.173 98.9723 161.753 99.797 162.191 100.776C162.629 101.756 162.848 102.947 162.848 104.352C162.848 105.705 162.552 107 161.959 108.237C161.379 109.461 160.567 110.55 159.524 111.503C158.493 112.457 157.294 113.211 155.929 113.765C154.563 114.319 153.1 114.596 151.541 114.596ZM140.698 114.403L142.747 105.318H143.037L143.249 107.097C143.507 108.024 143.803 108.875 144.138 109.648C144.473 110.421 144.873 111.117 145.337 111.735L140.949 114.403H140.698ZM163.795 93.3349L163.718 92.0399C163.486 91.1766 163.228 90.3519 162.945 89.5659C162.674 88.7799 162.223 87.9552 161.592 87.0919L165.805 84.6372H166.057L164.085 93.3349H163.795ZM175.664 114.596C174.156 114.596 172.874 114.338 171.817 113.823C170.774 113.295 169.917 112.586 169.247 111.697C168.577 110.808 168.055 109.815 167.681 108.72C167.307 107.612 167.037 106.478 166.869 105.318H167.159C167.301 106.375 167.546 107.432 167.894 108.488C168.242 109.545 168.731 110.505 169.363 111.368C170.007 112.231 170.819 112.927 171.798 113.456C172.79 113.984 174.001 114.248 175.432 114.248C176.733 114.248 177.88 114.003 178.872 113.514C179.864 113.024 180.637 112.347 181.192 111.484C181.758 110.608 182.042 109.603 182.042 108.469C182.042 107.374 181.823 106.459 181.385 105.724C180.96 104.977 180.386 104.352 179.665 103.849C178.956 103.334 178.176 102.87 177.326 102.458C176.475 102.046 175.625 101.614 174.775 101.163C173.924 100.712 173.138 100.19 172.417 99.5973C171.708 98.9917 171.134 98.2507 170.696 97.3745C170.271 96.4854 170.058 95.3966 170.058 94.1081C170.058 92.5489 170.374 91.1831 171.006 90.0105C171.65 88.8379 172.481 87.8522 173.499 87.0533C174.53 86.2544 175.631 85.6552 176.804 85.2557C177.977 84.8434 179.104 84.6372 180.186 84.6372C181.836 84.6372 183.221 85.0109 184.342 85.7583C185.463 86.5056 186.339 87.5365 186.971 88.8508C187.602 90.1522 188.014 91.6469 188.208 93.3349H187.918C187.724 91.7114 187.325 90.2746 186.719 89.0247C186.127 87.762 185.308 86.7762 184.265 86.0675C183.221 85.3459 181.939 84.9851 180.418 84.9851C179.491 84.9851 178.602 85.1849 177.751 85.5843C176.914 85.9838 176.224 86.5443 175.683 87.2659C175.142 87.9746 174.871 88.825 174.871 89.8172C174.871 90.745 175.09 91.531 175.528 92.1752C175.966 92.8066 176.54 93.3607 177.249 93.8375C177.97 94.3013 178.763 94.7459 179.626 95.1711C180.489 95.5963 181.353 96.0538 182.216 96.5434C183.079 97.0331 183.865 97.6194 184.574 98.3023C185.296 98.9723 185.875 99.797 186.313 100.776C186.752 101.756 186.971 102.947 186.971 104.352C186.971 105.705 186.674 107 186.082 108.237C185.502 109.461 184.69 110.55 183.646 111.503C182.615 112.457 181.417 113.211 180.051 113.765C178.685 114.319 177.223 114.596 175.664 114.596ZM164.821 114.403L166.869 105.318H167.159L167.372 107.097C167.63 108.024 167.926 108.875 168.261 109.648C168.596 110.421 168.995 111.117 169.459 111.735L165.072 114.403H164.821ZM187.918 93.3349L187.84 92.0399C187.608 91.1766 187.351 90.3519 187.067 89.5659C186.797 88.7799 186.346 87.9552 185.714 87.0919L189.928 84.6372H190.179L188.208 93.3349H187.918ZM202.183 114.403C198.936 114.403 196.417 113.481 194.626 111.639C192.834 109.796 191.939 107.303 191.939 104.159C191.939 101.891 192.255 99.7648 192.886 97.7804C193.517 95.7961 194.381 93.9985 195.476 92.3878C196.584 90.7772 197.853 89.392 199.284 88.2323C200.714 87.0726 202.234 86.1835 203.845 85.565C205.469 84.9465 207.105 84.6372 208.754 84.6372C210.79 84.6372 212.575 85.056 214.108 85.8936C215.655 86.7182 216.853 87.8973 217.703 89.4306C218.567 90.964 218.998 92.7809 218.998 94.8812C218.998 97.716 218.535 100.325 217.607 102.709C216.679 105.08 215.416 107.142 213.818 108.894C212.234 110.634 210.436 111.987 208.426 112.953C206.416 113.919 204.335 114.403 202.183 114.403ZM202.183 114.132C203.239 114.132 204.232 113.784 205.159 113.088C206.1 112.393 206.963 111.445 207.749 110.247C208.548 109.036 209.257 107.664 209.875 106.13C210.507 104.597 211.042 102.98 211.48 101.279C211.918 99.5779 212.246 97.8835 212.465 96.1955C212.697 94.4946 212.813 92.8968 212.813 91.4021C212.813 90.5646 212.742 89.7592 212.601 88.9861C212.472 88.213 212.246 87.5236 211.924 86.918C211.615 86.2995 211.196 85.8098 210.668 85.449C210.153 85.0882 209.515 84.9078 208.754 84.9078C207.762 84.9078 206.809 85.2557 205.894 85.9516C204.992 86.6474 204.141 87.6009 203.343 88.8121C202.557 90.0105 201.841 91.3763 201.197 92.9097C200.566 94.4431 200.018 96.0602 199.554 97.7611C199.103 99.462 198.749 101.163 198.491 102.864C198.246 104.552 198.124 106.143 198.124 107.638C198.124 109.004 198.246 110.17 198.491 111.136C198.749 112.103 199.174 112.844 199.767 113.359C200.36 113.874 201.165 114.132 202.183 114.132ZM222.408 114.016L229.173 85.0238H235.165L228.4 114.016H222.408ZM218.736 114.016V113.726H232.652V114.016H218.736ZM242.509 114.306C241.169 114.306 240.138 114.093 239.417 113.668C238.708 113.243 238.212 112.676 237.929 111.967C237.658 111.246 237.523 110.44 237.523 109.551C237.536 108.662 237.594 107.741 237.697 106.787C237.813 105.834 237.89 104.913 237.929 104.023C237.967 103.134 237.883 102.335 237.677 101.627C237.484 100.905 237.085 100.338 236.479 99.9258C235.886 99.5006 234.997 99.288 233.812 99.288H230.719V99.0947H235.551C237.587 99.0947 239.185 99.3589 240.345 99.8872C241.504 100.415 242.348 101.118 242.877 101.994C243.405 102.87 243.727 103.83 243.843 104.874C243.959 105.905 243.972 106.942 243.882 107.986C243.791 109.017 243.708 109.97 243.63 110.846C243.553 111.71 243.592 112.405 243.746 112.934C243.914 113.462 244.307 113.726 244.925 113.726C245.26 113.726 245.583 113.681 245.892 113.591C246.214 113.501 246.536 113.398 246.858 113.282L246.955 113.552C246.259 113.823 245.563 114.016 244.867 114.132C244.184 114.248 243.398 114.306 242.509 114.306ZM230.719 99.1914V98.9788H234.585C235.68 98.9788 236.64 98.779 237.465 98.3796C238.289 97.9673 238.992 97.4325 239.571 96.7754C240.151 96.1053 240.622 95.3644 240.982 94.5526C241.343 93.7408 241.607 92.929 241.775 92.1173C241.942 91.2926 242.026 90.5388 242.026 89.8559C242.026 89.3791 241.975 88.8766 241.872 88.3483C241.781 87.8199 241.594 87.3303 241.311 86.8793C241.04 86.4154 240.641 86.0418 240.113 85.7583C239.597 85.4619 238.914 85.3137 238.064 85.3137H225.114V85.0238H239.417C241.105 85.0238 242.619 85.2106 243.959 85.5843C245.299 85.958 246.356 86.5701 247.129 87.4205C247.915 88.2709 248.308 89.4049 248.308 90.8223C248.308 92.6262 247.786 94.1532 246.742 95.403C245.698 96.6401 244.217 97.5807 242.297 98.225C240.39 98.8692 238.141 99.1914 235.551 99.1914H230.719ZM253.637 114.016L260.208 85.0238H266.2L259.628 114.016H253.637ZM249.384 114.016V113.726H264.074V114.016H249.384ZM255.763 85.3137V85.0238H270.452V85.3137H255.763ZM269.427 114.016L276.153 85.0238H282.145L275.419 114.016H269.427ZM266.141 114.016V113.726H279.864C281.629 113.726 283.182 113.365 284.522 112.644C285.862 111.922 286.996 110.93 287.924 109.667C288.865 108.404 289.618 106.955 290.185 105.318H290.475L288.465 114.016H266.141ZM284.155 103.849C284.155 102.986 283.994 102.2 283.672 101.491C283.35 100.783 282.899 100.222 282.319 99.8099C281.752 99.3847 281.101 99.1721 280.367 99.1721H277.815V98.8821H280.367C281.101 98.8821 281.855 98.6888 282.628 98.3023C283.401 97.9028 284.116 97.3681 284.773 96.698C285.431 96.0151 285.952 95.242 286.339 94.3787H286.629L284.445 103.849H284.155ZM292.659 92.9484C292.788 91.5696 292.653 90.3004 292.253 89.1407C291.867 87.981 291.203 87.0533 290.263 86.3574C289.322 85.6616 288.098 85.3137 286.59 85.3137H272.674V85.0238H294.805L292.949 92.9484H292.659ZM302.958 114.596C301.45 114.596 300.168 114.338 299.112 113.823C298.068 113.295 297.211 112.586 296.541 111.697C295.871 110.808 295.349 109.815 294.975 108.72C294.602 107.612 294.331 106.478 294.164 105.318H294.454C294.595 106.375 294.84 107.432 295.188 108.488C295.536 109.545 296.026 110.505 296.657 111.368C297.301 112.231 298.113 112.927 299.092 113.456C300.085 113.984 301.296 114.248 302.726 114.248C304.028 114.248 305.174 114.003 306.166 113.514C307.159 113.024 307.932 112.347 308.486 111.484C309.053 110.608 309.336 109.603 309.336 108.469C309.336 107.374 309.117 106.459 308.679 105.724C308.254 104.977 307.681 104.352 306.959 103.849C306.25 103.334 305.471 102.87 304.62 102.458C303.77 102.046 302.919 101.614 302.069 101.163C301.218 100.712 300.432 100.19 299.711 99.5973C299.002 98.9917 298.429 98.2507 297.991 97.3745C297.565 96.4854 297.353 95.3966 297.353 94.1081C297.353 92.5489 297.669 91.1831 298.3 90.0105C298.944 88.8379 299.775 87.8522 300.793 87.0533C301.824 86.2544 302.926 85.6552 304.098 85.2557C305.271 84.8434 306.398 84.6372 307.481 84.6372C309.13 84.6372 310.515 85.0109 311.636 85.7583C312.757 86.5056 313.634 87.5365 314.265 88.8508C314.896 90.1522 315.309 91.6469 315.502 93.3349H315.212C315.019 91.7114 314.619 90.2746 314.014 89.0247C313.421 87.762 312.603 86.7762 311.559 86.0675C310.515 85.3459 309.233 84.9851 307.713 84.9851C306.785 84.9851 305.896 85.1849 305.045 85.5843C304.208 85.9838 303.519 86.5443 302.977 87.2659C302.436 87.9746 302.166 88.825 302.166 89.8172C302.166 90.745 302.385 91.531 302.823 92.1752C303.261 92.8066 303.834 93.3607 304.543 93.8375C305.265 94.3013 306.057 94.7459 306.92 95.1711C307.784 95.5963 308.647 96.0538 309.51 96.5434C310.374 97.0331 311.16 97.6194 311.868 98.3023C312.59 98.9723 313.17 99.797 313.608 100.776C314.046 101.756 314.265 102.947 314.265 104.352C314.265 105.705 313.969 107 313.376 108.237C312.796 109.461 311.984 110.55 310.941 111.503C309.91 112.457 308.711 113.211 307.346 113.765C305.98 114.319 304.517 114.596 302.958 114.596ZM292.115 114.403L294.164 105.318H294.454L294.666 107.097C294.924 108.024 295.22 108.875 295.555 109.648C295.89 110.421 296.29 111.117 296.754 111.735L292.366 114.403H292.115ZM315.212 93.3349L315.135 92.0399C314.903 91.1766 314.645 90.3519 314.362 89.5659C314.091 88.7799 313.64 87.9552 313.009 87.0919L317.222 84.6372H317.473L315.502 93.3349H315.212Z" fill="#333333"/>
</g>
</svg>
