<svg width="175" height="72" viewBox="0 0 175 72" fill="none" xmlns="http://www.w3.org/2000/svg">
<g style="mix-blend-mode:multiply" opacity="0.8">
<path d="M3.97909 47.6725L22.4414 15.6461H24.8277L28.8048 47.6725H21.8971L19.2387 21.842L4.33494 47.6725H3.97909ZM0.336871 47.6725V47.3585H9.54708V47.6725H0.336871ZM17.0827 47.6725V47.3585H31.7353V47.6725H17.0827ZM10.1332 37.5831V37.2691H23.781V37.5831H10.1332ZM38.9391 48.0911C37.7251 48.0911 36.7901 47.819 36.1342 47.2748C35.4923 46.7166 35.1085 45.963 34.9829 45.0141C34.8573 44.0512 34.9411 42.9697 35.2341 41.7696L38.5205 28.7288H35.7993V28.4148H44.235L40.7812 41.6649C40.5021 42.7534 40.2997 43.6744 40.1742 44.428C40.0625 45.1676 40.0695 45.7258 40.1951 46.1026C40.3346 46.4793 40.6486 46.6677 41.137 46.6677C41.5836 46.6677 42.1488 46.3328 42.8326 45.663C43.5303 44.9932 44.256 44.0721 45.0095 42.8999C45.7631 41.7277 46.4818 40.3811 47.1655 38.86C47.8493 37.325 48.4145 35.6992 48.8611 33.9828H49.1332C48.8262 35.155 48.4215 36.39 47.9191 37.6878C47.4167 38.9856 46.8376 40.2555 46.1817 41.4975C45.5258 42.7255 44.8072 43.8349 44.0257 44.8257C43.2442 45.8165 42.4209 46.6119 41.5557 47.212C40.7044 47.7981 39.8323 48.0911 38.9391 48.0911ZM50.0961 48.0911C48.7424 48.0911 47.7516 47.8051 47.1237 47.2329C46.5097 46.6608 46.2027 45.9491 46.2027 45.0978C46.2027 44.8745 46.2236 44.6233 46.2655 44.3442C46.3073 44.0652 46.3562 43.814 46.412 43.5907L50.2635 28.4148H55.8524L51.1636 45.977C51.1217 46.1165 51.0938 46.2421 51.0799 46.3538C51.0659 46.4654 51.0589 46.5701 51.0589 46.6677C51.0589 47.0585 51.2404 47.2538 51.6032 47.2538C52.0637 47.2538 52.5591 47.0864 53.0894 46.7515C53.6336 46.4026 54.2128 45.7746 54.8268 44.8676C55.4547 43.9605 56.1315 42.6627 56.8572 40.9741L57.1503 41.0579C56.4944 42.6208 55.8245 43.9256 55.1407 44.9722C54.4709 46.0049 53.7313 46.7864 52.9219 47.3166C52.1125 47.833 51.1706 48.0911 50.0961 48.0911ZM62.9147 48.0911C61.8401 48.0911 60.9819 47.9446 60.34 47.6516C59.712 47.3445 59.2585 46.9608 58.9794 46.5003C58.7142 46.0258 58.5817 45.5304 58.5817 45.0141C58.5817 44.6931 58.6305 44.3094 58.7282 43.8628C58.8398 43.4023 58.9515 42.9627 59.0631 42.5441L63.9403 24.2283H69.3827L63.5636 45.7258C63.5217 45.8653 63.4798 46.0328 63.438 46.2282C63.3961 46.4096 63.3752 46.598 63.3752 46.7933C63.3752 47.2259 63.6682 47.4422 64.2543 47.4422C64.673 47.4422 65.1265 47.3376 65.6149 47.1282C66.1173 46.9189 66.6336 46.5701 67.1639 46.0816C67.7081 45.5932 68.2594 44.9164 68.8176 44.0512C69.3758 43.172 69.92 42.0766 70.4503 40.7648L70.7643 40.8486C70.0944 42.4534 69.3897 43.793 68.6501 44.8676C67.9244 45.9421 67.0941 46.7515 66.1592 47.2957C65.2381 47.826 64.1566 48.0911 62.9147 48.0911ZM58.7073 28.7288V28.4148H72.1039V28.7288H58.7073ZM75.7784 48.0911C74.5643 48.0911 73.6293 47.819 72.9734 47.2748C72.3315 46.7166 71.9478 45.963 71.8222 45.0141C71.6966 44.0512 71.7803 42.9697 72.0734 41.7696L75.3597 28.7288H72.6385V28.4148H81.0742L77.6204 41.6649C77.3413 42.7534 77.139 43.6744 77.0134 44.428C76.9017 45.1676 76.9087 45.7258 77.0343 46.1026C77.1739 46.4793 77.4878 46.6677 77.9763 46.6677C78.4228 46.6677 78.988 46.3328 79.6718 45.663C80.3695 44.9932 81.0952 44.0721 81.8487 42.8999C82.6023 41.7277 83.321 40.3811 84.0048 38.86C84.6886 37.325 85.2537 35.6992 85.7003 33.9828H85.9724C85.6654 35.155 85.2607 36.39 84.7583 37.6878C84.256 38.9856 83.6768 40.2555 83.021 41.4975C82.3651 42.7255 81.6464 43.8349 80.8649 44.8257C80.0834 45.8165 79.2601 46.6119 78.3949 47.212C77.5437 47.7981 76.6715 48.0911 75.7784 48.0911ZM86.9353 48.0911C85.5817 48.0911 84.5909 47.8051 83.9629 47.2329C83.3489 46.6608 83.0419 45.9491 83.0419 45.0978C83.0419 44.8745 83.0628 44.6233 83.1047 44.3442C83.1465 44.0652 83.1954 43.814 83.2512 43.5907L87.1027 28.4148H92.6917L88.0028 45.977C87.961 46.1165 87.9331 46.2421 87.9191 46.3538C87.9052 46.4654 87.8982 46.5701 87.8982 46.6677C87.8982 47.0585 88.0796 47.2538 88.4424 47.2538C88.9029 47.2538 89.3983 47.0864 89.9286 46.7515C90.4728 46.4026 91.052 45.7746 91.666 44.8676C92.294 43.9605 92.9708 42.6627 93.6964 40.9741L93.9895 41.0579C93.3336 42.6208 92.6638 43.9256 91.98 44.9722C91.3101 46.0049 90.5705 46.7864 89.7612 47.3166C88.9518 47.833 88.0098 48.0911 86.9353 48.0911ZM120.707 48.0911C119.395 48.0911 118.439 47.7841 117.839 47.1701C117.239 46.5561 116.939 45.7746 116.939 44.8257C116.939 44.5187 116.974 44.1907 117.044 43.8419C117.128 43.479 117.204 43.1581 117.274 42.879L119.64 34.7782C120.17 32.978 120.47 31.6453 120.54 30.7801C120.609 29.9149 120.4 29.4823 119.912 29.4823C119.312 29.4823 118.656 29.8382 117.944 30.5499C117.232 31.2476 116.521 32.1965 115.809 33.3967C115.097 34.5828 114.434 35.9295 113.82 37.4366C113.206 38.9437 112.69 40.4997 112.271 42.1045H112.041C112.46 40.4997 112.997 38.8739 113.653 37.2273C114.309 35.5666 115.062 34.0456 115.914 32.664C116.765 31.2685 117.693 30.1452 118.698 29.2939C119.716 28.4427 120.798 28.0171 121.942 28.0171C123.17 28.0171 124.07 28.3101 124.642 28.8962C125.215 29.4684 125.529 30.2289 125.584 31.1778C125.654 32.1268 125.529 33.1664 125.208 34.2967L121.879 45.8304C121.824 45.9979 121.775 46.1793 121.733 46.3747C121.705 46.5561 121.691 46.7166 121.691 46.8561C121.691 47.0096 121.733 47.1352 121.817 47.2329C121.914 47.3166 122.054 47.3585 122.235 47.3585C122.668 47.3585 123.163 47.191 123.721 46.8561C124.28 46.5073 124.88 45.8723 125.522 44.9513C126.163 44.0163 126.833 42.6906 127.531 40.9741L127.824 41.0579C127.154 42.7464 126.477 44.107 125.794 45.1397C125.11 46.1584 124.356 46.905 123.533 47.3794C122.724 47.8539 121.782 48.0911 120.707 48.0911ZM94.3324 47.6725L99.1259 28.7288H96.2582V28.4148H104.631L99.7748 47.6725H94.3324ZM105.427 47.6725L108.713 34.7782C109.159 32.9501 109.439 31.5965 109.55 30.7173C109.676 29.8242 109.487 29.3777 108.985 29.3777C108.385 29.3777 107.722 29.7335 106.996 30.4452C106.271 31.1569 105.538 32.1198 104.799 33.3339C104.059 34.5479 103.368 35.9155 102.726 37.4366C102.098 38.9437 101.575 40.4997 101.156 42.1045H100.947C101.366 40.5276 101.903 38.9158 102.559 37.2691C103.229 35.6225 103.996 34.1014 104.861 32.7059C105.727 31.2964 106.669 30.1661 107.687 29.3149C108.72 28.4497 109.808 28.0171 110.953 28.0171C112.069 28.0171 112.92 28.3101 113.506 28.8962C114.093 29.4684 114.441 30.2289 114.553 31.1778C114.665 32.1268 114.574 33.1664 114.281 34.2967L110.848 47.6725H105.427ZM143.616 48.0911C142.43 48.0911 141.53 47.8051 140.916 47.2329C140.316 46.6468 140.016 45.8514 140.016 44.8466C140.016 44.5396 140.051 44.2187 140.12 43.8837C140.19 43.5349 140.267 43.2279 140.351 42.9627L142.842 34.4223C143.163 33.3339 143.386 32.4198 143.511 31.6802C143.637 30.9406 143.623 30.3824 143.47 30.0056C143.33 29.6288 143.03 29.4405 142.569 29.4405C142.109 29.4405 141.537 29.7754 140.853 30.4452C140.169 31.115 139.451 32.0361 138.697 33.2083C137.957 34.3665 137.246 35.7132 136.562 37.2482C135.892 38.7693 135.327 40.388 134.866 42.1045H134.657C134.964 40.9323 135.362 39.7043 135.85 38.4204C136.353 37.1226 136.925 35.8597 137.567 34.6317C138.222 33.4036 138.934 32.2942 139.702 31.3034C140.469 30.2987 141.279 29.5032 142.13 28.9171C142.981 28.3171 143.853 28.0171 144.746 28.0171C145.905 28.0171 146.805 28.2962 147.447 28.8543C148.103 29.3986 148.507 30.1452 148.661 31.0941C148.828 32.043 148.737 33.1106 148.389 34.2967L145.165 45.4955C145.123 45.6072 145.088 45.7397 145.06 45.8932C145.032 46.0467 145.019 46.1793 145.019 46.291C145.019 46.5142 145.06 46.6887 145.144 46.8143C145.242 46.9399 145.402 47.0027 145.626 47.0027C146.463 47.0027 147.307 46.5073 148.158 45.5165C149.024 44.5257 149.882 43.0116 150.733 40.9741L151.026 41.0579C150.342 42.7464 149.624 44.107 148.87 45.1397C148.13 46.1584 147.328 46.905 146.463 47.3794C145.612 47.8539 144.663 48.0911 143.616 48.0911ZM127.959 47.6725L132.836 28.7288H129.884V28.4148H138.446L133.443 47.6725H127.959Z" fill="#333333"/>
</g>
<path d="M27.4291 61.3616C26.6592 62.0862 25.7459 62.4485 24.6892 62.4485C24.1004 62.4485 23.5796 62.3466 23.1267 62.1428C22.6739 61.939 22.2965 61.6673 21.9945 61.3276C21.6926 60.988 21.4624 60.5955 21.3039 60.1501C21.1529 59.7048 21.0775 59.2406 21.0775 58.7575C21.0775 58.2443 21.1567 57.7763 21.3152 57.3536C21.4813 56.9234 21.7115 56.5535 22.0059 56.244C22.3002 55.9346 22.6474 55.693 23.0475 55.5194C23.4551 55.3458 23.8966 55.259 24.3722 55.259C24.6967 55.259 24.9911 55.2968 25.2553 55.3722C25.527 55.4477 25.7648 55.5458 25.9686 55.6666C26.1799 55.7874 26.3498 55.927 26.4781 56.0855C26.6139 56.2365 26.7083 56.3912 26.7611 56.5497H27.599C27.4857 56.2931 27.3386 56.0553 27.1574 55.8364C26.9838 55.6175 26.7649 55.4288 26.5007 55.2703C26.2365 55.1118 25.9271 54.9873 25.5723 54.8967C25.2176 54.8061 24.8137 54.7608 24.3609 54.7608C23.7042 54.7608 23.1041 54.8552 22.5606 55.0439C22.0247 55.2326 21.5643 55.5043 21.1794 55.8591C20.7944 56.2063 20.4963 56.629 20.2849 57.1272C20.0736 57.6178 19.9679 58.1688 19.9679 58.7802C19.9679 59.3085 20.0509 59.8256 20.217 60.3313C20.3906 60.8295 20.6548 61.2748 21.0095 61.6673C21.3643 62.0522 21.8172 62.3655 22.3682 62.607C22.9192 62.841 23.5759 62.958 24.3382 62.958C24.8213 62.958 25.2515 62.9127 25.6289 62.8221C26.0139 62.7316 26.346 62.6221 26.6253 62.4938C26.9121 62.3579 27.1499 62.2145 27.3386 62.0636C27.5273 61.9126 27.6707 61.7805 27.7688 61.6673L27.4291 61.3616ZM33.8662 58.8594C33.8662 59.2821 33.9454 59.735 34.1039 60.2181C34.27 60.6936 34.5266 61.1352 34.8738 61.5428C35.221 61.9503 35.6626 62.29 36.1985 62.5617C36.7344 62.8259 37.376 62.958 38.1232 62.958C38.629 62.958 39.0856 62.8976 39.4932 62.7769C39.9084 62.6485 40.2782 62.4787 40.6028 62.2674C40.9349 62.056 41.2217 61.8145 41.4633 61.5428C41.7048 61.2635 41.901 60.9729 42.052 60.671C42.2105 60.3615 42.3275 60.052 42.403 59.7425C42.486 59.4331 42.5275 59.1387 42.5275 58.8594C42.5275 58.4367 42.4407 57.9876 42.2671 57.5121C42.0935 57.029 41.8256 56.5837 41.4633 56.1761C41.1009 55.7685 40.6405 55.4326 40.082 55.1684C39.531 54.8967 38.8781 54.7608 38.1232 54.7608C37.376 54.7608 36.7344 54.8929 36.1985 55.1571C35.6626 55.4213 35.221 55.7572 34.8738 56.1648C34.5266 56.5648 34.27 57.0064 34.1039 57.4895C33.9454 57.9725 33.8662 58.4292 33.8662 58.8594ZM34.9757 58.8594C34.9757 58.3311 35.055 57.848 35.2135 57.4102C35.3795 56.9649 35.6022 56.5837 35.8815 56.2667C36.1683 55.9497 36.5042 55.7043 36.8891 55.5307C37.2741 55.3496 37.693 55.259 38.1459 55.259C38.5912 55.259 39.0101 55.3496 39.4026 55.5307C39.8027 55.7043 40.1499 55.9497 40.4443 56.2667C40.7462 56.5837 40.984 56.9649 41.1576 57.4102C41.3312 57.848 41.418 58.3311 41.418 58.8594C41.418 59.3878 41.3312 59.8746 41.1576 60.32C40.984 60.7578 40.7462 61.1352 40.4443 61.4522C40.1499 61.7692 39.8027 62.0183 39.4026 62.1994C39.0101 62.373 38.5912 62.4598 38.1459 62.4598C37.693 62.4598 37.2741 62.373 36.8891 62.1994C36.5042 62.0183 36.1683 61.7692 35.8815 61.4522C35.6022 61.1352 35.3795 60.7578 35.2135 60.32C35.055 59.8746 34.9757 59.3878 34.9757 58.8594ZM49.7621 62.8221V54.8967H50.7924V62.1994H54.8797V62.8221H49.7621ZM61.8803 62.8221V54.8967H62.9106V62.1994H66.9978V62.8221H61.8803ZM73.9984 54.8967V62.8221H79.116V62.1994H75.0287V58.8821H78.5385V58.3613H75.0287V55.5194H79.116V54.8967H73.9984ZM92.7852 61.3616C92.0153 62.0862 91.102 62.4485 90.0453 62.4485C89.4565 62.4485 88.9357 62.3466 88.4828 62.1428C88.03 61.939 87.6526 61.6673 87.3506 61.3276C87.0487 60.988 86.8185 60.5955 86.66 60.1501C86.509 59.7048 86.4336 59.2406 86.4336 58.7575C86.4336 58.2443 86.5128 57.7763 86.6713 57.3536C86.8374 56.9234 87.0676 56.5535 87.362 56.244C87.6563 55.9346 88.0035 55.693 88.4036 55.5194C88.8112 55.3458 89.2527 55.259 89.7283 55.259C90.0528 55.259 90.3472 55.2968 90.6114 55.3722C90.8831 55.4477 91.1209 55.5458 91.3247 55.6666C91.536 55.7874 91.7059 55.927 91.8342 56.0855C91.97 56.2365 92.0644 56.3912 92.1172 56.5497H92.9551C92.8418 56.2931 92.6946 56.0553 92.5135 55.8364C92.3399 55.6175 92.121 55.4288 91.8568 55.2703C91.5926 55.1118 91.2832 54.9873 90.9284 54.8967C90.5736 54.8061 90.1698 54.7608 89.7169 54.7608C89.0603 54.7608 88.4602 54.8552 87.9167 55.0439C87.3808 55.2326 86.9204 55.5043 86.5355 55.8591C86.1505 56.2063 85.8524 56.629 85.641 57.1272C85.4297 57.6178 85.324 58.1688 85.324 58.7802C85.324 59.3085 85.407 59.8256 85.5731 60.3313C85.7467 60.8295 86.0109 61.2748 86.3656 61.6673C86.7204 62.0522 87.1733 62.3655 87.7243 62.607C88.2753 62.841 88.932 62.958 89.6943 62.958C90.1774 62.958 90.6076 62.9127 90.985 62.8221C91.37 62.7316 91.7021 62.6221 91.9814 62.4938C92.2682 62.3579 92.5059 62.2145 92.6946 62.0636C92.8833 61.9126 93.0268 61.7805 93.1249 61.6673L92.7852 61.3616ZM102.947 62.8221V55.5194H105.982V54.8967H98.8826V55.5194H101.917V62.8221H102.947ZM113.327 54.8967V62.8221H114.357V54.8967H113.327ZM122.043 58.8594C122.043 59.2821 122.123 59.735 122.281 60.2181C122.447 60.6936 122.704 61.1352 123.051 61.5428C123.398 61.9503 123.84 62.29 124.376 62.5617C124.912 62.8259 125.553 62.958 126.3 62.958C126.806 62.958 127.263 62.8976 127.67 62.7769C128.085 62.6485 128.455 62.4787 128.78 62.2674C129.112 62.056 129.399 61.8145 129.64 61.5428C129.882 61.2635 130.078 60.9729 130.229 60.671C130.388 60.3615 130.505 60.052 130.58 59.7425C130.663 59.4331 130.705 59.1387 130.705 58.8594C130.705 58.4367 130.618 57.9876 130.444 57.5121C130.271 57.029 130.003 56.5837 129.64 56.1761C129.278 55.7685 128.818 55.4326 128.259 55.1684C127.708 54.8967 127.055 54.7608 126.3 54.7608C125.553 54.7608 124.912 54.8929 124.376 55.1571C123.84 55.4213 123.398 55.7572 123.051 56.1648C122.704 56.5648 122.447 57.0064 122.281 57.4895C122.123 57.9725 122.043 58.4292 122.043 58.8594ZM123.153 58.8594C123.153 58.3311 123.232 57.848 123.391 57.4102C123.557 56.9649 123.779 56.5837 124.059 56.2667C124.345 55.9497 124.681 55.7043 125.066 55.5307C125.451 55.3496 125.87 55.259 126.323 55.259C126.768 55.259 127.187 55.3496 127.58 55.5307C127.98 55.7043 128.327 55.9497 128.621 56.2667C128.923 56.5837 129.161 56.9649 129.335 57.4102C129.508 57.848 129.595 58.3311 129.595 58.8594C129.595 59.3878 129.508 59.8746 129.335 60.32C129.161 60.7578 128.923 61.1352 128.621 61.4522C128.327 61.7692 127.98 62.0183 127.58 62.1994C127.187 62.373 126.768 62.4598 126.323 62.4598C125.87 62.4598 125.451 62.373 125.066 62.1994C124.681 62.0183 124.345 61.7692 124.059 61.4522C123.779 61.1352 123.557 60.7578 123.391 60.32C123.232 59.8746 123.153 59.3878 123.153 58.8594ZM144.325 54.8967V60.954H144.28L137.996 54.7608H137.939V62.8221H138.46V56.7648H138.505L144.789 62.958H144.846V54.8967H144.325Z" fill="#333333"/>
</svg>
