<svg width="194" height="218" viewBox="0 0 194 218" fill="none" xmlns="http://www.w3.org/2000/svg">
<g style="mix-blend-mode:multiply" opacity="0.5">
<path d="M18.6464 181.491L45.8993 60.6838H27.0256V59.4636H75.9994L48.3398 181.491H18.6464ZM0.911732 181.491V180.271H66.4813V181.491H0.911732ZM109.493 183.118C101.738 183.118 95.0667 181.301 89.4806 177.668C83.8944 174.034 79.5828 169.288 76.5456 163.431C73.5085 157.52 71.9899 151.147 71.9899 144.313C71.9899 134.931 73.156 125.955 75.4881 117.386C77.8744 108.763 81.1285 100.844 85.2503 93.6313C89.4263 86.3639 94.2532 80.0727 99.7309 74.7577C105.263 69.3885 111.201 65.2395 117.547 62.3109C123.892 59.328 130.428 57.8365 137.153 57.8365C144.854 57.8365 151.498 59.6534 157.084 63.2871C162.724 66.8666 167.036 71.6121 170.019 77.5237C173.056 83.4352 174.575 89.8078 174.575 96.6413C174.575 106.024 173.408 115.027 171.076 123.65C168.744 132.219 165.49 140.137 161.314 147.405C157.138 154.618 152.284 160.909 146.752 166.278C141.275 171.593 135.363 175.742 129.018 178.725C122.672 181.654 116.164 183.118 109.493 183.118ZM109.493 181.979C112.368 181.979 115.161 180.542 117.872 177.668C120.584 174.793 123.187 170.915 125.682 166.034C128.177 161.099 130.482 155.54 132.597 149.357C134.766 143.175 136.719 136.748 138.454 130.077C140.19 123.406 141.654 116.844 142.847 110.39C144.095 103.936 145.044 97.9972 145.695 92.5737C146.4 87.096 146.752 82.5675 146.752 78.988C146.752 76.1136 146.617 73.4832 146.345 71.0969C146.129 68.6563 145.668 66.5412 144.962 64.7514C144.312 62.9075 143.335 61.4974 142.034 60.5211C140.786 59.4907 139.159 58.9755 137.153 58.9755C134.224 58.9755 131.404 60.3856 128.692 63.2057C125.98 65.9717 123.377 69.7681 120.882 74.595C118.388 79.3676 116.055 84.7911 113.886 90.8653C111.771 96.9396 109.846 103.285 108.11 109.902C106.375 116.518 104.883 123.081 103.636 129.589C102.443 136.043 101.494 142.063 100.788 147.649C100.138 153.235 99.8123 158.008 99.8123 161.967C99.8123 164.787 99.9207 167.417 100.138 169.858C100.409 172.298 100.87 174.441 101.521 176.285C102.226 178.074 103.202 179.485 104.449 180.515C105.751 181.491 107.432 181.979 109.493 181.979Z" fill="#333333"/>
</g>
<path d="M44.5055 124.696C40.9888 124.696 38.2606 123.699 36.3209 121.703C34.3812 119.708 33.4113 117.007 33.4113 113.602C33.4113 111.146 33.7532 108.844 34.437 106.695C35.1208 104.546 36.0558 102.599 37.2419 100.855C38.4421 99.1102 39.8166 97.6101 41.3656 96.3541C42.9146 95.0982 44.5613 94.1353 46.3056 93.4655C48.0639 92.7956 49.8362 92.4607 51.6224 92.4607C53.8273 92.4607 55.7601 92.9143 57.4207 93.8213C59.0953 94.7144 60.3931 95.9913 61.3141 97.6519C62.2491 99.3126 62.7166 101.28 62.7166 103.555C62.7166 106.625 62.2142 109.451 61.2094 112.032C60.2047 114.6 58.8371 116.833 57.1067 118.731C55.3902 120.615 53.4435 122.08 51.2666 123.127C49.0896 124.173 46.8359 124.696 44.5055 124.696ZM44.5055 124.403C45.6498 124.403 46.7243 124.027 47.729 123.273C48.7477 122.52 49.6827 121.494 50.534 120.196C51.3992 118.884 52.1667 117.398 52.8365 115.737C53.5203 114.077 54.0994 112.325 54.5739 110.483C55.0484 108.641 55.4042 106.806 55.6414 104.978C55.8926 103.136 56.0182 101.406 56.0182 99.787C56.0182 98.88 55.9415 98.0078 55.788 97.1705C55.6484 96.3332 55.4042 95.5866 55.0553 94.9307C54.7204 94.2609 54.2669 93.7306 53.6947 93.3399C53.1365 92.9492 52.4458 92.7538 51.6224 92.7538C50.5479 92.7538 49.5152 93.1306 48.5245 93.8841C47.5476 94.6377 46.6266 95.6704 45.7614 96.9821C44.9101 98.2799 44.1356 99.7591 43.4379 101.42C42.7541 103.08 42.161 104.832 41.6587 106.674C41.1702 108.516 40.7865 110.358 40.5074 112.2C40.2422 114.028 40.1097 115.751 40.1097 117.37C40.1097 118.849 40.2422 120.112 40.5074 121.159C40.7865 122.206 41.247 123.008 41.8889 123.566C42.5308 124.124 43.403 124.403 44.5055 124.403ZM70.6061 124.696C68.4291 124.696 66.7406 124.11 65.5404 122.938C64.3543 121.766 63.7612 120.168 63.7612 118.145C63.7612 116.54 64.0891 114.942 64.745 113.351C65.4149 111.746 66.3289 110.288 67.4872 108.976C68.6454 107.651 69.9711 106.59 71.4643 105.795C72.9714 104.999 74.5762 104.601 76.2787 104.601C77.5207 104.601 78.6092 104.832 79.5442 105.292C80.4791 105.739 81.2048 106.318 81.7211 107.03C82.2374 107.727 82.4956 108.453 82.4956 109.207C82.4956 110.156 82.1956 110.93 81.5955 111.53C80.9955 112.13 80.2628 112.43 79.3976 112.43C78.6162 112.43 77.9184 112.207 77.3044 111.76C76.6904 111.3 76.3834 110.602 76.3834 109.667C76.3834 108.83 76.6695 108.132 77.2416 107.574C77.8277 107.002 78.5324 106.716 79.3558 106.716C79.8581 106.716 80.3466 106.806 80.821 106.988C81.2955 107.169 81.6862 107.448 81.9932 107.825C82.3002 108.188 82.4538 108.648 82.4538 109.207H82.1816C82.1816 108.495 81.9444 107.832 81.4699 107.218C81.0094 106.604 80.4163 106.109 79.6907 105.732C78.965 105.341 78.1975 105.146 77.3881 105.146C76.3415 105.146 75.3786 105.522 74.4995 106.276C73.6203 107.016 72.8388 107.993 72.1551 109.207C71.4713 110.421 70.8852 111.739 70.3967 113.163C69.9083 114.572 69.5385 115.961 69.2873 117.328C69.0361 118.682 68.9106 119.868 68.9106 120.887C68.9106 121.906 69.1338 122.708 69.5804 123.294C70.0409 123.866 70.6968 124.152 71.548 124.152C72.7481 124.152 73.8715 123.894 74.9181 123.378C75.9647 122.861 76.9137 122.192 77.7649 121.368C78.6301 120.531 79.3767 119.638 80.0047 118.689L80.2768 118.856C79.6209 119.833 78.8325 120.768 77.9114 121.661C77.0044 122.554 75.9438 123.287 74.7297 123.859C73.5296 124.417 72.1551 124.696 70.6061 124.696ZM88.6922 124.696C87.6177 124.696 86.7595 124.55 86.1176 124.257C85.4896 123.95 85.0361 123.566 84.757 123.106C84.4918 122.631 84.3592 122.136 84.3592 121.619C84.3592 121.298 84.4081 120.915 84.5058 120.468C84.6174 120.008 84.729 119.568 84.8407 119.149L89.7179 100.834H95.1603L89.3411 122.331C89.2993 122.471 89.2574 122.638 89.2155 122.834C89.1737 123.015 89.1527 123.203 89.1527 123.399C89.1527 123.831 89.4458 124.048 90.0319 124.048C90.4505 124.048 90.9041 123.943 91.3925 123.734C91.8949 123.524 92.4112 123.175 92.9415 122.687C93.4857 122.199 94.0369 121.522 94.5951 120.657C95.1533 119.777 95.6976 118.682 96.2279 117.37L96.5418 117.454C95.872 119.059 95.1673 120.398 94.4277 121.473C93.702 122.547 92.8717 123.357 91.9367 123.901C91.0157 124.431 89.9342 124.696 88.6922 124.696ZM84.4848 105.334V105.02H97.8815V105.334H84.4848ZM105.403 124.696C103.128 124.696 101.384 124.124 100.17 122.98C98.9556 121.836 98.3486 120.217 98.3486 118.124C98.3486 116.365 98.6835 114.677 99.3533 113.058C100.023 111.439 100.937 109.995 102.095 108.725C103.254 107.455 104.579 106.45 106.073 105.711C107.58 104.971 109.164 104.601 110.824 104.601C113.099 104.601 114.857 105.195 116.099 106.381C117.355 107.567 117.983 109.207 117.983 111.3C117.983 113.016 117.655 114.677 116.999 116.282C116.343 117.887 115.436 119.324 114.278 120.594C113.134 121.85 111.801 122.847 110.28 123.587C108.759 124.327 107.133 124.696 105.403 124.696ZM105.152 124.382C105.724 124.382 106.31 124.096 106.91 123.524C107.51 122.938 108.096 122.157 108.668 121.18C109.254 120.203 109.806 119.115 110.322 117.914C110.838 116.7 111.292 115.451 111.682 114.168C112.073 112.87 112.38 111.621 112.603 110.421C112.827 109.221 112.938 108.16 112.938 107.239C112.938 106.513 112.785 105.948 112.478 105.543C112.185 105.139 111.717 104.936 111.075 104.936C110.503 104.936 109.917 105.222 109.317 105.795C108.717 106.367 108.124 107.141 107.538 108.118C106.952 109.095 106.401 110.19 105.884 111.404C105.382 112.619 104.935 113.868 104.545 115.151C104.154 116.435 103.847 117.677 103.624 118.877C103.4 120.077 103.289 121.145 103.289 122.08C103.289 122.792 103.435 123.357 103.728 123.775C104.035 124.18 104.51 124.382 105.152 124.382ZM127.714 124.696C126.584 124.696 125.53 124.459 124.553 123.985C123.576 123.496 122.704 122.84 121.937 122.017C121.169 121.194 120.541 120.273 120.053 119.254L127.044 93.1934H123.779V92.8794H132.549L124.846 121.515C124.846 122.282 124.965 122.931 125.202 123.461C125.453 123.992 125.942 124.257 126.667 124.257C127.393 124.257 128.112 123.915 128.823 123.231C129.535 122.547 130.205 121.647 130.833 120.531C131.461 119.401 132.019 118.166 132.507 116.826C132.996 115.486 133.38 114.154 133.659 112.828C133.938 111.488 134.077 110.288 134.077 109.228C134.077 108.139 133.91 107.281 133.575 106.653C133.24 106.011 132.766 105.69 132.152 105.69C131.454 105.69 130.819 106.004 130.247 106.632C129.675 107.246 129.151 108.055 128.677 109.06C128.202 110.051 127.777 111.132 127.4 112.305C127.023 113.463 126.688 114.593 126.395 115.696H126.102C126.577 113.993 127.044 112.465 127.505 111.111C127.979 109.744 128.495 108.579 129.054 107.616C129.626 106.653 130.289 105.92 131.042 105.418C131.81 104.901 132.724 104.643 133.784 104.643C135.654 104.643 137.092 105.299 138.096 106.611C139.115 107.923 139.624 109.66 139.624 111.823C139.624 113.456 139.31 115.04 138.682 116.575C138.055 118.11 137.189 119.491 136.087 120.719C134.984 121.933 133.715 122.903 132.277 123.629C130.84 124.341 129.319 124.696 127.714 124.696ZM148.753 124.696C147.232 124.696 145.962 124.403 144.944 123.817C143.939 123.217 143.178 122.415 142.662 121.41C142.16 120.391 141.908 119.254 141.908 117.998C141.908 116.282 142.229 114.621 142.871 113.016C143.513 111.411 144.406 109.981 145.551 108.725C146.695 107.455 148.021 106.45 149.528 105.711C151.035 104.971 152.654 104.601 154.384 104.601C156.366 104.601 157.908 105.034 159.01 105.899C160.112 106.764 160.664 107.825 160.664 109.081C160.664 110.1 160.343 111.021 159.701 111.844C159.073 112.667 158.166 113.379 156.98 113.979C155.807 114.579 154.405 115.061 152.772 115.423C151.139 115.786 149.318 116.017 147.309 116.114V115.884C148.328 115.814 149.284 115.563 150.177 115.13C151.07 114.684 151.879 114.126 152.605 113.456C153.33 112.772 153.958 112.032 154.489 111.237C155.019 110.428 155.424 109.618 155.703 108.809C155.996 107.999 156.142 107.253 156.142 106.569C156.142 106.15 156.059 105.774 155.891 105.439C155.724 105.104 155.417 104.936 154.97 104.936C154.342 104.936 153.707 105.215 153.065 105.774C152.437 106.332 151.823 107.085 151.223 108.034C150.637 108.983 150.093 110.037 149.591 111.195C149.088 112.353 148.649 113.547 148.272 114.775C147.895 116.003 147.595 117.182 147.372 118.312C147.162 119.442 147.058 120.433 147.058 121.285C147.058 122.415 147.288 123.189 147.748 123.608C148.223 124.013 148.844 124.215 149.611 124.215C150.644 124.215 151.663 123.999 152.668 123.566C153.686 123.12 154.663 122.485 155.598 121.661C156.533 120.838 157.384 119.847 158.152 118.689L158.424 118.856C157.768 119.847 156.987 120.789 156.08 121.682C155.172 122.561 154.112 123.287 152.898 123.859C151.698 124.417 150.316 124.696 148.753 124.696ZM162.071 124.278L166.885 105.334H163.536V105.02H172.181L167.472 124.278H162.071ZM168.769 117.998C169.021 116.965 169.321 115.842 169.669 114.628C170.032 113.414 170.451 112.221 170.925 111.049C171.414 109.876 171.958 108.809 172.558 107.846C173.172 106.869 173.856 106.088 174.61 105.502C175.377 104.915 176.214 104.622 177.121 104.622C178.224 104.622 179.117 104.943 179.801 105.585C180.498 106.213 180.847 107.023 180.847 108.013C180.847 108.962 180.554 109.765 179.968 110.421C179.382 111.063 178.615 111.384 177.666 111.384C176.759 111.384 176.005 111.097 175.405 110.525C174.805 109.953 174.505 109.221 174.505 108.327C174.505 107.448 174.805 106.737 175.405 106.192C176.005 105.648 176.766 105.376 177.687 105.376C178.538 105.376 179.27 105.606 179.884 106.067C180.498 106.527 180.805 107.176 180.805 108.013H180.512C180.512 107.092 180.198 106.353 179.57 105.795C178.956 105.222 178.14 104.936 177.121 104.936C176.242 104.936 175.44 105.229 174.714 105.816C173.989 106.388 173.326 107.155 172.726 108.118C172.126 109.067 171.588 110.121 171.114 111.279C170.653 112.423 170.242 113.581 169.879 114.754C169.53 115.926 169.23 117.007 168.979 117.998H168.769Z" fill="#FCFCFC"/>
<path d="M38.6933 138.45C37.8141 139.277 36.7711 139.691 35.5644 139.691C34.8921 139.691 34.2973 139.575 33.7801 139.342C33.263 139.109 32.832 138.799 32.4872 138.411C32.1424 138.023 31.8795 137.575 31.6985 137.066C31.5261 136.558 31.4399 136.028 31.4399 135.476C31.4399 134.89 31.5304 134.355 31.7114 133.873C31.9011 133.381 32.164 132.959 32.5001 132.606C32.8363 132.252 33.2328 131.976 33.6896 131.778C34.1551 131.58 34.6593 131.481 35.2024 131.481C35.573 131.481 35.9092 131.524 36.2108 131.61C36.5211 131.696 36.7927 131.808 37.0254 131.946C37.2667 132.084 37.4607 132.244 37.6072 132.425C37.7624 132.597 37.8701 132.774 37.9305 132.955H38.8872C38.7579 132.662 38.5898 132.39 38.383 132.14C38.1847 131.89 37.9348 131.675 37.6331 131.494C37.3314 131.313 36.978 131.17 36.5729 131.067C36.1677 130.964 35.7066 130.912 35.1894 130.912C34.4395 130.912 33.7543 131.02 33.1337 131.235C32.5217 131.451 31.9959 131.761 31.5563 132.166C31.1167 132.562 30.7762 133.045 30.5349 133.614C30.2935 134.174 30.1728 134.804 30.1728 135.502C30.1728 136.105 30.2677 136.696 30.4573 137.273C30.6555 137.842 30.9572 138.351 31.3623 138.799C31.7675 139.238 32.2846 139.596 32.9139 139.872C33.5431 140.139 34.293 140.273 35.1636 140.273C35.7152 140.273 36.2065 140.221 36.6375 140.118C37.0771 140.014 37.4564 139.889 37.7753 139.743C38.1028 139.587 38.3744 139.424 38.5898 139.251C38.8053 139.079 38.9691 138.928 39.0812 138.799L38.6933 138.45ZM46.0441 135.592C46.0441 136.075 46.1346 136.592 46.3156 137.144C46.5053 137.687 46.7983 138.191 47.1948 138.657C47.5913 139.122 48.0956 139.51 48.7076 139.82C49.3196 140.122 50.0522 140.273 50.9056 140.273C51.4831 140.273 52.0046 140.204 52.47 140.066C52.9441 139.919 53.3665 139.725 53.7371 139.484C54.1164 139.243 54.4439 138.967 54.7197 138.657C54.9956 138.338 55.2197 138.006 55.3921 137.661C55.5731 137.308 55.7067 136.954 55.7929 136.601C55.8877 136.247 55.9351 135.911 55.9351 135.592C55.9351 135.11 55.836 134.597 55.6377 134.054C55.4395 133.502 55.1335 132.993 54.7197 132.528C54.306 132.063 53.7802 131.679 53.1423 131.377C52.5131 131.067 51.7675 130.912 50.9056 130.912C50.0522 130.912 49.3196 131.063 48.7076 131.364C48.0956 131.666 47.5913 132.05 47.1948 132.515C46.7983 132.972 46.5053 133.476 46.3156 134.028C46.1346 134.579 46.0441 135.101 46.0441 135.592ZM47.3112 135.592C47.3112 134.989 47.4017 134.437 47.5827 133.937C47.7724 133.429 48.0266 132.993 48.3456 132.631C48.6731 132.269 49.0567 131.989 49.4963 131.791C49.9359 131.584 50.4142 131.481 50.9314 131.481C51.44 131.481 51.9184 131.584 52.3666 131.791C52.8234 131.989 53.2199 132.269 53.5561 132.631C53.9009 132.993 54.1724 133.429 54.3706 133.937C54.5689 134.437 54.668 134.989 54.668 135.592C54.668 136.196 54.5689 136.752 54.3706 137.26C54.1724 137.76 53.9009 138.191 53.5561 138.553C53.2199 138.915 52.8234 139.2 52.3666 139.406C51.9184 139.605 51.44 139.704 50.9314 139.704C50.4142 139.704 49.9359 139.605 49.4963 139.406C49.0567 139.2 48.6731 138.915 48.3456 138.553C48.0266 138.191 47.7724 137.76 47.5827 137.26C47.4017 136.752 47.3112 136.196 47.3112 135.592ZM64.1967 140.118V131.067H65.3733V139.406H70.0408V140.118H64.1967ZM78.0352 140.118V131.067H79.2118V139.406H83.8793V140.118H78.0352ZM91.8737 131.067V140.118H97.7177V139.406H93.0502V135.618H97.0583V135.023H93.0502V131.778H97.7177V131.067H91.8737ZM113.327 138.45C112.448 139.277 111.405 139.691 110.199 139.691C109.526 139.691 108.932 139.575 108.414 139.342C107.897 139.109 107.466 138.799 107.121 138.411C106.777 138.023 106.514 137.575 106.333 137.066C106.16 136.558 106.074 136.028 106.074 135.476C106.074 134.89 106.165 134.355 106.346 133.873C106.535 133.381 106.798 132.959 107.134 132.606C107.47 132.252 107.867 131.976 108.324 131.778C108.789 131.58 109.294 131.481 109.837 131.481C110.207 131.481 110.543 131.524 110.845 131.61C111.155 131.696 111.427 131.808 111.66 131.946C111.901 132.084 112.095 132.244 112.241 132.425C112.397 132.597 112.504 132.774 112.565 132.955H113.521C113.392 132.662 113.224 132.39 113.017 132.14C112.819 131.89 112.569 131.675 112.267 131.494C111.966 131.313 111.612 131.17 111.207 131.067C110.802 130.964 110.341 130.912 109.824 130.912C109.074 130.912 108.388 131.02 107.768 131.235C107.156 131.451 106.63 131.761 106.19 132.166C105.751 132.562 105.41 133.045 105.169 133.614C104.928 134.174 104.807 134.804 104.807 135.502C104.807 136.105 104.902 136.696 105.091 137.273C105.29 137.842 105.591 138.351 105.997 138.799C106.402 139.238 106.919 139.596 107.548 139.872C108.177 140.139 108.927 140.273 109.798 140.273C110.349 140.273 110.841 140.221 111.272 140.118C111.711 140.014 112.091 139.889 112.41 139.743C112.737 139.587 113.009 139.424 113.224 139.251C113.44 139.079 113.603 138.928 113.715 138.799L113.327 138.45ZM124.932 140.118V131.778H128.397V131.067H120.29V131.778H123.756V140.118H124.932ZM136.785 131.067V140.118H137.962V131.067H136.785ZM146.739 135.592C146.739 136.075 146.83 136.592 147.011 137.144C147.2 137.687 147.493 138.191 147.89 138.657C148.286 139.122 148.791 139.51 149.403 139.82C150.015 140.122 150.747 140.273 151.601 140.273C152.178 140.273 152.7 140.204 153.165 140.066C153.639 139.919 154.061 139.725 154.432 139.484C154.811 139.243 155.139 138.967 155.415 138.657C155.69 138.338 155.915 138.006 156.087 137.661C156.268 137.308 156.402 136.954 156.488 136.601C156.583 136.247 156.63 135.911 156.63 135.592C156.63 135.11 156.531 134.597 156.333 134.054C156.134 133.502 155.828 132.993 155.415 132.528C155.001 132.063 154.475 131.679 153.837 131.377C153.208 131.067 152.462 130.912 151.601 130.912C150.747 130.912 150.015 131.063 149.403 131.364C148.791 131.666 148.286 132.05 147.89 132.515C147.493 132.972 147.2 133.476 147.011 134.028C146.83 134.579 146.739 135.101 146.739 135.592ZM148.006 135.592C148.006 134.989 148.097 134.437 148.278 133.937C148.467 133.429 148.722 132.993 149.04 132.631C149.368 132.269 149.752 131.989 150.191 131.791C150.631 131.584 151.109 131.481 151.626 131.481C152.135 131.481 152.613 131.584 153.062 131.791C153.518 131.989 153.915 132.269 154.251 132.631C154.596 132.993 154.867 133.429 155.066 133.937C155.264 134.437 155.363 134.989 155.363 135.592C155.363 136.196 155.264 136.752 155.066 137.26C154.867 137.76 154.596 138.191 154.251 138.553C153.915 138.915 153.518 139.2 153.062 139.406C152.613 139.605 152.135 139.704 151.626 139.704C151.109 139.704 150.631 139.605 150.191 139.406C149.752 139.2 149.368 138.915 149.04 138.553C148.722 138.191 148.467 137.76 148.278 137.26C148.097 136.752 148.006 136.196 148.006 135.592ZM172.184 131.067V137.984H172.132L164.956 130.912H164.892V140.118H165.486V133.2H165.538L172.714 140.273H172.779V131.067H172.184Z" fill="#FCFCFC"/>
</svg>
